HIERARCHY
ROOT Hips
{
  OFFSET 5.72205e-005 65.662 3.42586
  CHANNELS 6 Xposition Yposition Zposition Zrotation Xrotation Yrotation
  JOINT Chest
  {
    OFFSET 0 8.7983 -4.7612
    CHANNELS 3 Zrotation Xrotation Yrotation
    JOINT Chest2
    {
      OFFSET 0 8.0291 0.4195
      CHANNELS 3 Zrotation Xrotation Yrotation
      JOINT Chest3
      {
        OFFSET 0 9.9351 -2.2114
        CHANNELS 3 Zrotation Xrotation Yrotation
        JOINT Neck
        {
          OFFSET 0 22.3885 -0.4656
          CHANNELS 3 Zrotation Xrotation Yrotation
          JOINT Head
          {
            OFFSET -0.0001 12.643 3.4389
            CHANNELS 3 Zrotation Xrotation Yrotation
            End Site
            {
              OFFSET 0.0001 17.6655 0.5274
            }
          }
        }
        JOINT LeftCollar
        {
          OFFSET 2.2603 21.606 7.4023
          CHANNELS 3 Zrotation Xrotation Yrotation
          JOINT LeftShoulder
          {
            OFFSET 13.5163 -1.1332 -5.0146
            CHANNELS 3 Zrotation Xrotation Yrotation
            JOINT LeftElbow
            {
              OFFSET -0.0995 -28.05 -0.2431
              CHANNELS 3 Zrotation Xrotation Yrotation
              JOINT LeftWrist
              {
                OFFSET 0.0679 -23.3996 -0.1402
                CHANNELS 3 Zrotation Xrotation Yrotation
                JOINT LeftFinger1
                {
                  OFFSET 0.7932 -9.069 2.5189
                  CHANNELS 3 Zrotation Xrotation Yrotation
                  JOINT LeftFinger11
                  {
                    OFFSET -0.8272 -3.3923 0.5977
                    CHANNELS 3 Zrotation Xrotation Yrotation
                    JOINT LeftFinger12
                    {
                      OFFSET -0.5649 -2.3158 0.4082
                      CHANNELS 3 Zrotation Xrotation Yrotation
                      End Site
                      {
                        OFFSET -0.4919 -1.6479 0.2673
                      }
                    }
                  }
                }
                JOINT LeftFinger2
                {
                  OFFSET 0.9159 -9.2044 0.2193
                  CHANNELS 3 Zrotation Xrotation Yrotation
                  JOINT LeftFinger21
                  {
                    OFFSET 0.0117 -4.1944 -0.0248
                    CHANNELS 3 Zrotation Xrotation Yrotation
                    JOINT LeftFinger22
                    {
                      OFFSET 0.0071 -2.3249 -0.0142
                      CHANNELS 3 Zrotation Xrotation Yrotation
                      End Site
                      {
                        OFFSET -0.1475 -2.0882 0.0028
                      }
                    }
                  }
                }
                JOINT LeftFinger3
                {
                  OFFSET 0.6113 -8.7231 -2.0637
                  CHANNELS 3 Zrotation Xrotation Yrotation
                  JOINT LeftFinger31
                  {
                    OFFSET -0.1927 -3.8059 -0.2383
                    CHANNELS 3 Zrotation Xrotation Yrotation
                    JOINT LeftFinger32
                    {
                      OFFSET -0.1091 -2.1688 -0.1362
                      CHANNELS 3 Zrotation Xrotation Yrotation
                      End Site
                      {
                        OFFSET -0.2358 -1.9176 -0.0906
                      }
                    }
                  }
                }
                JOINT LeftFinger4
                {
                  OFFSET -0.6151 -8.0947 -3.5641
                  CHANNELS 3 Zrotation Xrotation Yrotation
                  JOINT LeftFinger41
                  {
                    OFFSET -0.4882 -2.341 -0.6462
                    CHANNELS 3 Zrotation Xrotation Yrotation
                    JOINT LeftFinger42
                    {
                      OFFSET -0.3575 -1.7167 -0.4742
                      CHANNELS 3 Zrotation Xrotation Yrotation
                      End Site
                      {
                        OFFSET -0.4187 -1.5237 -0.3496
                      }
                    }
                  }
                }
                JOINT LeftFinger0
                {
                  OFFSET -1.42 -1.8761 1.4223
                  CHANNELS 3 Zrotation Xrotation Yrotation
                  JOINT LeftFinger01
                  {
                    OFFSET -1.1471 -3.4929 2.6334
                    CHANNELS 3 Zrotation Xrotation Yrotation
                    JOINT LeftFinger02
                    {
                      OFFSET -0.823 -2.3 1.6571
                      CHANNELS 3 Zrotation Xrotation Yrotation
                      End Site
                      {
                        OFFSET -0.5822 -1.6914 1.1582
                      }
                    }
                  }
                }
              }
            }
          }
        }
        JOINT RightCollar
        {
          OFFSET -2.2603 21.606 7.4023
          CHANNELS 3 Zrotation Xrotation Yrotation
          JOINT RightShoulder
          {
            OFFSET -13.5187 -1.1334 -5.0155
            CHANNELS 3 Zrotation Xrotation Yrotation
            JOINT RightElbow
            {
              OFFSET 0.0994 -28.0499 -0.2431
              CHANNELS 3 Zrotation Xrotation Yrotation
              JOINT RightWrist
              {
                OFFSET -0.0679 -23.3996 -0.1402
                CHANNELS 3 Zrotation Xrotation Yrotation
                JOINT RightFinger1
                {
                  OFFSET -0.7932 -9.0691 2.5189
                  CHANNELS 3 Zrotation Xrotation Yrotation
                  JOINT RightFinger11
                  {
                    OFFSET 0.8272 -3.3923 0.5977
                    CHANNELS 3 Zrotation Xrotation Yrotation
                    JOINT RightFinger12
                    {
                      OFFSET 0.565 -2.3158 0.4082
                      CHANNELS 3 Zrotation Xrotation Yrotation
                      End Site
                      {
                        OFFSET 0.4919 -1.6479 0.2673
                      }
                    }
                  }
                }
                JOINT RightFinger2
                {
                  OFFSET -0.916 -9.2044 0.2193
                  CHANNELS 3 Zrotation Xrotation Yrotation
                  JOINT RightFinger21
                  {
                    OFFSET -0.0117 -4.1944 -0.0248
                    CHANNELS 3 Zrotation Xrotation Yrotation
                    JOINT RightFinger22
                    {
                      OFFSET -0.0071 -2.3249 -0.0142
                      CHANNELS 3 Zrotation Xrotation Yrotation
                      End Site
                      {
                        OFFSET 0.1475 -2.0882 0.0028
                      }
                    }
                  }
                }
                JOINT RightFinger3
                {
                  OFFSET -0.6113 -8.7231 -2.0637
                  CHANNELS 3 Zrotation Xrotation Yrotation
                  JOINT RightFinger31
                  {
                    OFFSET 0.1927 -3.8059 -0.2383
                    CHANNELS 3 Zrotation Xrotation Yrotation
                    JOINT RightFinger32
                    {
                      OFFSET 0.1091 -2.1688 -0.1362
                      CHANNELS 3 Zrotation Xrotation Yrotation
                      End Site
                      {
                        OFFSET 0.2358 -1.9176 -0.0906
                      }
                    }
                  }
                }
                JOINT RightFinger4
                {
                  OFFSET 0.6151 -8.0947 -3.564
                  CHANNELS 3 Zrotation Xrotation Yrotation
                  JOINT RightFinger41
                  {
                    OFFSET 0.4882 -2.341 -0.6462
                    CHANNELS 3 Zrotation Xrotation Yrotation
                    JOINT RightFinger42
                    {
                      OFFSET 0.3574 -1.7166 -0.4742
                      CHANNELS 3 Zrotation Xrotation Yrotation
                      End Site
                      {
                        OFFSET 0.4187 -1.5237 -0.3496
                      }
                    }
                  }
                }
                JOINT RightFinger0
                {
                  OFFSET 1.4199 -1.8761 1.4221
                  CHANNELS 3 Zrotation Xrotation Yrotation
                  JOINT RightFinger01
                  {
                    OFFSET 1.1472 -3.4929 2.6336
                    CHANNELS 3 Zrotation Xrotation Yrotation
                    JOINT RightFinger02
                    {
                      OFFSET 0.8229 -2.3 1.6571
                      CHANNELS 3 Zrotation Xrotation Yrotation
                      End Site
                      {
                        OFFSET 0.5822 -1.6914 1.1582
                      }
                    }
                  }
                }
              }
            }
          }
        }
      }
    }
  }
  JOINT RightHip
  {
    OFFSET -9.412 3.9771 -0.7758
    CHANNELS 3 Zrotation Xrotation Yrotation
    JOINT RightKnee
    {
      OFFSET -0.7531 -40.938 0
      CHANNELS 3 Zrotation Xrotation Yrotation
      JOINT RightAnkle
      {
        OFFSET 0 -40.1986 0
        CHANNELS 3 Zrotation Xrotation Yrotation
        JOINT RightToe
        {
          OFFSET 0 -4.4182 9.239
          CHANNELS 3 Zrotation Xrotation Yrotation
          End Site
          {
            OFFSET 0 0 6.1981
          }
        }
      }
    }
  }
  JOINT LeftHip
  {
    OFFSET 9.4119 3.9773 -0.7758
    CHANNELS 3 Zrotation Xrotation Yrotation
    JOINT LeftKnee
    {
      OFFSET 0.7532 -40.9383 0
      CHANNELS 3 Zrotation Xrotation Yrotation
      JOINT LeftAnkle
      {
        OFFSET 0 -40.1986 0
        CHANNELS 3 Zrotation Xrotation Yrotation
        JOINT LeftToe
        {
          OFFSET 0 -4.4182 9.239
          CHANNELS 3 Zrotation Xrotation Yrotation
          End Site
          {
            OFFSET 0 0 6.1981
          }
        }
      }
    }
  }
}
MOTION
Frames:	5
Frame Time:	0.0333333
5.72205e-005 65.662 3.42586 0 0 -0 0 0 -0 0 0 -0 0 0 -0 0 0 -0 0 0 -0 0 0 -12.5014 88.1196 14.2451 10.6914 -0.00160068 -0.00239207 0.000740045 -8.4365e-005 7.00714e-005 -9.52055e-007 9.93923e-017 -1.98785e-016 -1.59028e-015 9.93923e-017 -5.96354e-016 -1.59028e-015 -9.93923e-017 -5.96354e-016 -1.59028e-015 9.93923e-017 -1.98785e-016 -1.59028e-015 -0.0128176 0.00232552 8.52707e-005 9.93923e-017 5.96354e-016 -0 9.93923e-017 -1.98785e-016 -1.59028e-015 -0.0160551 0.00299681 0.000857156 -2.48481e-016 0 3.18055e-015 9.93923e-017 -1.98785e-016 -1.59028e-015 -0.0125865 0.0031206 0.00282719 0 1.98785e-016 -0 9.93923e-017 -1.98785e-016 -1.59028e-015 9.93923e-017 -5.96354e-016 -1.59028e-015 -9.93923e-017 -5.96354e-016 -1.59028e-015 -0.865644 0.16582 7.03859 -88.0329 10.2057 -10.5567 0.0015593 -0.00248883 -0.000788628 7.87605e-005 4.10553e-005 1.24965e-005 -3.97569e-016 -7.95139e-016 3.18055e-015 -1.98785e-016 -3.97569e-016 3.18055e-015 -1.98785e-016 0 3.18055e-015 -3.97569e-016 -7.95139e-016 3.18055e-015 0.0129473 0.00231697 -8.70038e-005 9.93923e-017 -7.95139e-016 1.59028e-015 -3.97569e-016 -7.95139e-016 3.18055e-015 0.0163314 0.00303369 -0.000872333 3.97569e-016 7.95139e-016 -3.18055e-015 -3.97569e-016 -7.95139e-016 3.18055e-015 0.0145763 0.00367772 -0.00326275 9.93923e-017 -3.97569e-016 -0 -3.97569e-016 -7.95139e-016 3.18055e-015 -1.98785e-016 -3.97569e-016 3.18055e-015 -1.98785e-016 0 3.18055e-015 3.42482 1.32465 -0.0626183 0.000117508 0.717283 0.000978199 -3.4257 -2.04197 -0.0604716 6.47761e-025 0 -0 -3.42483 1.34017 0.0627307 -0.000193936 0.682302 -0.0013703 3.42574 -2.02253 0.0595886 -8.45714e-024 0 -7.40531e-025 
9.52894 3.99953 4.23679 90 1.78521e-008 6.44156e-010 -9.13101 -0.109707 -0.116117 -18.2623 -0.199596 -0.248174 -18.2624 -0.199597 -0.248175 17.3539 11.4681 -28.557 -2.38542e-015 1.59028e-015 -3.18055e-015 -10.7456 0.072894 -18.1889 64.6495 -58.4979 -9.90101 -48.9124 -70.3888 -41.1868 0.982192 -0.178127 0.0319617 1.59028e-015 -6.36111e-015 -3.18055e-015 -6.95806e-007 -2.34393e-006 -2.59162e-006 -3.18055e-015 -3.18055e-015 -3.18055e-015 1.59028e-015 -6.36111e-015 -3.18055e-015 -0.0128435 0.00233168 8.26599e-005 -1.41245e-030 -1.27222e-014 -6.36111e-015 1.59028e-015 -6.36111e-015 -3.18055e-015 -0.0160496 0.00299889 0.000860666 6.36111e-015 -6.36111e-015 -0 1.59028e-015 -6.36111e-015 -3.18055e-015 -0.0126259 0.00313079 0.0028301 -1.11319e-014 0 -6.36111e-015 1.59028e-015 -6.36111e-015 -3.18055e-015 -6.95806e-007 -2.34393e-006 -2.59162e-006 -3.18055e-015 -3.18055e-015 -3.18055e-015 7.13363 -0.0288352 7.03349 -64.4771 45.7077 2.23047 -169.242 -52.8846 -128.475 6.25888 1.28185 10.9062 -1.51728e-032 -7.95139e-016 -1.09332e-015 5.51738e-032 -1.59028e-015 1.98785e-015 2.62076e-032 -7.95139e-016 1.88845e-015 -1.51728e-032 -7.95139e-016 -1.09332e-015 0.0129726 0.00232509 -9.34098e-005 -1.59028e-015 -2.38542e-015 -1.78906e-015 -1.51728e-032 -7.95139e-016 -1.09332e-015 0.0163403 0.00303571 -0.000879028 5.06612e-006 -3.44791e-006 3.48691e-007 -1.51728e-032 -7.95139e-016 -1.09332e-015 0.0145896 0.00368 -0.00326613 4.77083e-015 0 1.98785e-016 -1.51728e-032 -7.95139e-016 -1.09332e-015 5.51738e-032 -1.59028e-015 1.98785e-015 2.62076e-032 -7.95139e-016 1.88845e-015 -3.96551 -27.6996 -2.88276 4.58549 50.1664 -4.60733 -12.017 32.1539 2.03937 1.78906e-015 -6.36111e-015 -1.98785e-016 24.1993 -39.6938 89.8836 -18.5461 83.5313 21.3463 12.9425 30.1274 -0.667111 -2.8382e-006 -2.17943e-006 1.56143e-006 
9.52894 3.99953 4.23679 90 -1.47367e-009 3.83302e-009 -9.13101 -0.109707 -0.116117 -18.2623 -0.199596 -0.248174 -18.2624 -0.199597 -0.248175 17.4096 11.419 -28.5658 7.06225e-031 -3.18055e-015 1.27222e-014 -10.7456 0.0728948 -18.1889 64.5552 -58.2555 -9.96273 -48.9123 -70.3888 -41.1867 0.982211 -0.178131 0.0319661 -6.44464e-007 -3.18055e-015 1.45161e-006 -1.11319e-014 9.54166e-015 6.36111e-015 3.18055e-015 3.18055e-015 3.18055e-015 -6.44464e-007 -3.18055e-015 1.45161e-006 -0.0128488 0.00233004 8.94296e-005 -3.18055e-015 3.18055e-015 3.18055e-015 -6.44464e-007 -3.18055e-015 1.45161e-006 -0.0160961 0.00300441 0.00086124 -3.18055e-015 3.18055e-015 -3.18055e-015 -6.44464e-007 -3.18055e-015 1.45161e-006 -0.0125827 0.00311694 0.0028308 4.77083e-015 3.18055e-015 3.18055e-015 -6.44464e-007 -3.18055e-015 1.45161e-006 -1.11319e-014 9.54166e-015 6.36111e-015 3.18055e-015 3.18055e-015 3.18055e-015 7.13363 -0.0288354 7.03349 -64.4771 45.7077 2.23049 -169.242 -52.8846 -128.475 6.25891 1.28181 10.9061 1.68878e-006 -1.71138e-006 1.16136e-007 -1.76045e-007 -3.76484e-006 -4.28301e-006 -1.59028e-015 1.27222e-014 5.36719e-015 1.68878e-006 -1.71138e-006 1.16136e-007 0.0129624 0.00231843 -8.16755e-005 2.19372e-006 -1.68676e-006 -1.27274e-006 1.68878e-006 -1.71138e-006 1.16136e-007 0.0163306 0.00303191 -0.000871797 1.59028e-015 0 6.95746e-016 1.68878e-006 -1.71138e-006 1.16136e-007 0.0145896 0.00367696 -0.00326304 2.69895e-006 -1.99371e-006 -2.66195e-006 1.68878e-006 -1.71138e-006 1.16136e-007 -1.76045e-007 -3.76484e-006 -4.28301e-006 -1.59028e-015 1.27222e-014 5.36719e-015 -3.96551 -27.6996 -2.88276 4.58549 50.1664 -4.60733 -12.017 32.1539 2.03937 -1.98785e-016 -3.18055e-015 1.98785e-016 24.1993 -39.6938 89.8836 -18.5461 83.5313 21.3463 12.9425 30.1274 -0.667111 -2.8382e-006 -2.17943e-006 1.56143e-006 
9.52894 3.99953 4.23679 90 -1.47367e-009 3.83302e-009 -9.13101 -0.109707 -0.116117 -18.2623 -0.199596 -0.248174 -18.2624 -0.199597 -0.248175 17.4652 11.3699 -28.5746 7.17624e-006 6.94535e-006 2.62033e-006 -10.7456 0.0728951 -18.1889 64.462 -58.0126 -10.0233 -48.9125 -70.3889 -41.1869 0.982172 -0.178132 0.031962 1.52255e-005 -7.25573e-006 7.85663e-006 -7.95139e-015 6.65839e-007 -6.36111e-015 -7.95139e-015 0 -6.36111e-015 1.52255e-005 -7.25573e-006 7.85663e-006 -0.0128113 0.00232848 8.59104e-005 -1.59028e-015 3.18055e-014 3.18055e-015 1.52255e-005 -7.25573e-006 7.85663e-006 -0.0160314 0.00299244 0.000851657 4.77083e-015 -3.18055e-015 -0 1.52255e-005 -7.25573e-006 7.85663e-006 -0.0125723 0.00311734 0.0028188 -4.77083e-015 -3.18055e-015 3.18055e-015 1.52255e-005 -7.25573e-006 7.85663e-006 -7.95139e-015 6.65839e-007 -6.36111e-015 -7.95139e-015 0 -6.36111e-015 7.13363 -0.0288354 7.03349 -64.4771 45.7077 2.23047 -169.242 -52.8846 -128.475 6.2589 1.28181 10.9062 1.3522e-007 1.49262e-005 -1.55561e-005 3.18055e-015 7.95139e-016 2.98177e-016 3.18055e-015 -7.95139e-016 -2.5842e-015 1.3522e-007 1.49262e-005 -1.55561e-005 0.0129462 0.00230708 -7.68263e-005 -4.77083e-015 0 -2.38542e-015 1.3522e-007 1.49262e-005 -1.55561e-005 0.016319 0.00302898 -0.000865209 -1.59028e-015 -7.95139e-016 -4.07509e-015 1.3522e-007 1.49262e-005 -1.55561e-005 0.0146138 0.00367493 -0.0032659 -1.93108e-031 -1.59028e-015 -6.95746e-015 1.3522e-007 1.49262e-005 -1.55561e-005 3.18055e-015 7.95139e-016 2.98177e-016 3.18055e-015 -7.95139e-016 -2.5842e-015 -3.96551 -27.6995 -2.88279 4.58548 50.1664 -4.60731 -12.017 32.1539 2.03938 5.17009e-006 -1.95297e-006 -7.40086e-006 24.1993 -39.6939 89.8836 -18.546 83.5313 21.3462 12.9425 30.1274 -0.667118 1.2941e-006 3.16252e-007 -1.41502e-006 
9.52894 3.99953 4.23679 90 -5.40123e-009 -1.93876e-008 -9.13101 -0.109707 -0.116117 -18.2623 -0.199596 -0.248173 -18.2624 -0.199596 -0.248174 17.5208 11.3208 -28.5834 1.75883e-005 1.21994e-005 -3.52406e-006 -10.7456 0.0728953 -18.1889 64.3698 -57.7695 -10.0828 -48.9129 -70.389 -41.1873 0.982212 -0.178121 0.0319514 -3.18055e-015 -9.54166e-015 3.18055e-015 -6.55058e-007 6.00769e-008 1.44386e-006 -1.59028e-015 -1.39819e-006 3.18055e-015 -3.18055e-015 -9.54166e-015 3.18055e-015 -0.0128201 0.00232414 8.82541e-005 1.14867e-006 6.91664e-007 4.68274e-006 -3.18055e-015 -9.54166e-015 3.18055e-015 -0.0160331 0.00299504 0.000857659 1.80356e-006 2.02991e-006 3.23894e-006 -3.18055e-015 -9.54166e-015 3.18055e-015 -0.0126008 0.00313199 0.00283112 3.29572e-006 -3.25778e-006 8.05035e-007 -3.18055e-015 -9.54166e-015 3.18055e-015 -6.55058e-007 6.00769e-008 1.44386e-006 -1.59028e-015 -1.39819e-006 3.18055e-015 7.13363 -0.0288353 7.03349 -64.4771 45.7076 2.23047 -169.242 -52.8846 -128.475 6.2589 1.2818 10.9062 7.93964e-006 6.98104e-006 1.96964e-006 0 0 -4.07509e-015 0 0 -7.95139e-016 7.93964e-006 6.98104e-006 1.96964e-006 0.0129473 0.00231059 -8.89373e-005 -4.77083e-015 1.59028e-015 2.5842e-015 7.93964e-006 6.98104e-006 1.96964e-006 0.0163004 0.00302619 -0.000872709 -1.59028e-015 -1.59028e-015 -3.47873e-015 7.93964e-006 6.98104e-006 1.96964e-006 0.0145693 0.00367883 -0.00326442 -3.18055e-015 7.95139e-016 -1.49089e-015 7.93964e-006 6.98104e-006 1.96964e-006 0 0 -4.07509e-015 0 0 -7.95139e-016 -3.96551 -27.6995 -2.88276 4.58549 50.1663 -4.60732 -12.017 32.1539 2.03936 2.17099e-006 -6.27083e-006 -1.06935e-007 24.1989 -39.6944 89.8834 -18.5449 83.5311 21.3457 12.9425 30.1274 -0.667122 -6.36111e-015 -1.59028e-015 3.18055e-015 
